<svg width="28" height="28" viewBox="0 0 28 28" fill="none" xmlns="http://www.w3.org/2000/svg">
<path d="M14 23L14.0194 22.9998C14.0427 22.9994 14.066 22.9981 14.0893 22.996L14 23C14.0527 23 14.1045 22.9961 14.155 22.9887C14.1665 22.9862 14.1786 22.9841 14.1906 22.9818C14.4454 22.936 14.6655 22.7976 14.8116 22.6051L22.7071 14.7071C23.0976 14.3166 23.0976 13.6834 22.7071 13.2929C22.3466 12.9324 21.7794 12.9047 21.3871 13.2097L21.2929 13.2929L15 19.586V4.95C15 4.42533 14.5523 4 14 4C13.4872 4 13.0645 4.36674 13.0067 4.83921L13 4.95V19.586L6.70711 13.2929C6.34662 12.9324 5.77939 12.9047 5.3871 13.2097L5.29289 13.2929C4.93241 13.6534 4.90468 14.2206 5.2097 14.6129L5.29289 14.7071L13.1884 22.6051C13.3345 22.7976 13.5546 22.936 13.8091 22.9827C13.8214 22.9841 13.8335 22.9862 13.8455 22.9881C13.8664 22.9918 13.8881 22.9943 13.91 22.9962C13.9343 22.9981 13.958 22.9994 13.9816 22.9998C13.9872 22.9999 13.9936 23 14 23Z" fill="#86582A"/>
</svg>
