<svg width="18" height="18" viewBox="0 0 18 18" fill="none" xmlns="http://www.w3.org/2000/svg">
<path d="M13.5993 5.14279C14.4589 5.14279 14.7707 5.2323 15.085 5.40038C15.3992 5.56846 15.6459 5.81511 15.814 6.1294L15.8733 6.24821C16.003 6.53018 16.0716 6.86289 16.0716 7.61511V12.1816L16.0682 12.5553C16.0432 13.853 15.8818 14.3772 15.5993 14.9054C15.2912 15.4816 14.839 15.9338 14.2628 16.242C13.6866 16.5501 13.1151 16.7142 11.539 16.7142H6.46129L6.08762 16.7108C4.78993 16.6859 4.26568 16.5244 3.7375 16.242C3.16131 15.9338 2.70911 15.4816 2.40096 14.9054C2.10565 14.3532 1.94264 13.8053 1.92956 12.3735L1.92871 7.61511C1.92871 6.75543 2.01822 6.44369 2.1863 6.1294C2.35439 5.81511 2.60104 5.56846 2.91532 5.40038L3.03414 5.34105C3.29597 5.22059 3.60154 5.15289 4.24613 5.14383L13.5993 5.14279ZM13.5993 6.4285H4.40103L4.17428 6.43027C3.77011 6.43748 3.64634 6.46747 3.52167 6.53414C3.43144 6.58239 3.36832 6.64552 3.32006 6.73574C3.24783 6.8708 3.21866 7.00481 3.21486 7.4954L3.21443 12.1816C3.21443 13.4245 3.29775 13.856 3.53472 14.2991C3.72304 14.6512 3.99171 14.9199 4.34384 15.1082C4.78694 15.3452 5.21845 15.4285 6.46129 15.4285H11.539C12.7818 15.4285 13.2133 15.3452 13.6564 15.1082C14.0086 14.9199 14.2772 14.6512 14.4656 14.2991C14.7025 13.856 14.7859 13.4245 14.7859 12.1816V7.61511C14.7859 7.02542 14.758 6.88119 14.6802 6.73574C14.632 6.64552 14.5688 6.58239 14.4786 6.53414C14.3539 6.46747 14.2302 6.43748 13.826 6.43027L13.5993 6.4285ZM12.2144 7.71422C12.5695 7.71422 12.8573 8.00203 12.8573 8.35707C12.8573 8.71211 12.5695 8.99993 12.2144 8.99993C11.8594 8.99993 11.5716 8.71211 11.5716 8.35707C11.5716 8.00203 11.8594 7.71422 12.2144 7.71422ZM5.78585 7.71422C6.14089 7.71422 6.42871 8.00203 6.42871 8.35707C6.42871 8.71211 6.14089 8.99993 5.78585 8.99993C5.43081 8.99993 5.143 8.71211 5.143 8.35707C5.143 8.00203 5.43081 7.71422 5.78585 7.71422ZM9.00014 1.28564C11.1304 1.28564 12.8573 3.01255 12.8573 5.14279H11.5716C11.5716 3.72263 10.4203 2.57136 9.00014 2.57136C7.57998 2.57136 6.42871 3.72263 6.42871 5.14279H5.143C5.143 3.01255 6.8699 1.28564 9.00014 1.28564Z" fill="#6FCF97"/>
</svg>
