<svg width="20" height="16" viewBox="0 0 20 16" fill="none" xmlns="http://www.w3.org/2000/svg">
<path d="M8.83297 13.8064C-0.0801462 13.9395 0.130486 11.5338 1.34994 10.3144C-2.22528 12.2267 1.34994 15.3862 11.4936 14.5963C19.6085 13.9644 18.3946 11.4784 16.7733 10.3144C17.8403 11.423 17.7461 13.6734 8.83297 13.8064Z" fill="#6FCF97"/>
<path d="M9.24826 15.2305C13.4388 15.1307 15.4287 14.3575 15.8998 13.9833C15.2485 14.1635 12.9815 14.5487 9.12354 14.6485C5.26563 14.7482 3.16484 14.1357 2.59668 13.817C3.06783 14.3297 5.05776 15.3303 9.24826 15.2305Z" fill="#6FCF97"/>
<path d="M3.17956 4.3695C4.97549 5.03466 8.14053 5.09009 9.49856 5.03466C9.34613 5.09009 8.64217 5.23421 7.04579 5.36724C5.05032 5.53353 3.34585 5.03466 2.26497 5.03466C1.19226 5.03466 1.63455 6.01736 2.00703 6.84495L2.01553 6.86384C2.38969 7.69529 3.76157 11.7278 10.2053 11.7278C15.3603 11.7278 17.1479 6.90542 17.3973 4.49422C17.4805 5.35338 17.256 7.56226 15.6928 9.52448C13.7389 11.9772 10.7873 12.1851 9.24913 12.2683C7.71095 12.3514 4.84245 12.102 2.55597 9.64919C0.726789 7.68698 0.408067 4.42493 0.477354 3.03918C0.629787 3.20547 1.38363 3.70434 3.17956 4.3695Z" fill="#6FCF97"/>
<path d="M8.99863 13.0997C6.40452 13.0332 5.50655 12.1297 5.38184 11.6862C6.01928 11.9357 7.82629 12.4262 9.9548 12.393C12.0833 12.3597 12.9203 11.908 13.0727 11.6862C12.7956 12.1851 11.5927 13.1662 8.99863 13.0997Z" fill="#6FCF97"/>
<path d="M15.7756 4.32795C15.0772 4.59401 13.8217 4.74367 13.2812 4.78524C13.8355 4.84067 14.9109 4.9349 15.7756 5.36726C16.6403 5.79961 16.4962 7.3073 16.1913 7.94474C16.2883 7.79231 16.6569 7.2297 17.0228 5.86612C17.3886 4.50255 17.2861 3.77365 17.2306 3.62122C17.0366 3.74593 16.474 4.06188 15.7756 4.32795Z" fill="#6FCF97"/>
<path d="M17.729 3.03918C17.9286 2.83963 17.8953 2.40174 17.8538 2.20773C18.2418 2.24931 19.076 2.40728 19.3088 2.7066C19.5998 3.08075 19.7245 3.4549 19.3088 4.32792C18.8931 5.20094 17.8538 6.48969 17.729 7.03013C17.6293 7.46248 18.1309 7.79229 18.3942 7.90315C18.2972 7.93086 17.9785 7.98629 17.4796 7.98629C16.9807 7.98629 16.8283 7.73686 16.8145 7.61214C16.8837 7.36271 17.0722 6.76407 17.2717 6.36497C17.5212 5.8661 17.729 6.36497 18.6021 4.57736C19.4751 2.78975 18.4773 3.03918 18.1032 3.03918C17.8039 3.03918 17.5628 3.56576 17.4796 3.82906C17.4796 3.64891 17.5295 3.23873 17.729 3.03918Z" fill="#6FCF97"/>
<path d="M2.57446 0.587345C1.26665 1.00282 0.642452 1.45543 0.500359 2.02265C0.358263 2.58987 0.873095 3.15448 1.95949 3.62287C3.04589 4.09126 4.6386 4.43529 6.47357 4.59793C8.30853 4.76058 10.2755 4.73206 12.0484 4.5171C13.8213 4.30215 15.2937 3.91367 16.2213 3.41608C17.149 2.91849 17.4762 2.34167 17.1488 1.78126C16.8214 1.22085 15.859 0.710504 14.4211 0.334842C13.0519 -0.0228956 10.704 -0.0787399 9.18726 0.0950199C10.8092 0.116182 12.3581 0.301361 13.5771 0.619856C14.7961 0.938351 15.6121 1.37103 15.8897 1.84616C16.1673 2.32129 15.8898 2.81033 15.1033 3.2322C14.3169 3.65407 13.0686 3.98343 11.5655 4.16567C10.0624 4.34791 8.3947 4.37209 6.83898 4.2342C5.28326 4.09631 3.93293 3.80463 3.01185 3.40752C2.09078 3.01041 1.6543 2.53172 1.77477 2.05082C1.89524 1.56992 2.23285 0.78311 3.34164 0.430863L2.57446 0.587345Z" fill="#6FCF97"/>
<path d="M1.30793 2.54032C1.30793 3.64239 4.58374 4.53579 8.62467 4.53579C12.6656 4.53579 15.9414 3.64239 15.9414 2.54032C15.9414 1.43825 12.6656 0.627991 8.62467 0.627991C4.58374 0.627991 1.30793 1.43825 1.30793 2.54032ZM14.9115 2.29089C14.9115 3.23783 12.0968 4.00549 8.62467 4.00549C5.15252 4.00549 2.58722 3.48727 2.58722 2.54032C2.58722 1.59337 5.15252 0.908862 8.62467 0.908862C12.0968 0.908862 14.9115 1.34394 14.9115 2.29089Z" fill="#6FCF97"/>
<ellipse rx="5.94485" ry="1.45503" transform="matrix(-1 0 0 1 8.41745 2.58189)" fill="#6FCF97"/>
</svg>
