<svg width="36" height="36" viewBox="0 0 36 36" fill="none" xmlns="http://www.w3.org/2000/svg">
<path d="M5.78577 18C5.78577 19.0671 6.6472 19.9286 7.71434 19.9286C8.78148 19.9286 9.64291 19.0671 9.64291 18C9.64291 16.9329 8.78148 16.0714 7.71434 16.0714C6.6472 16.0714 5.78577 16.9329 5.78577 18ZM5.78577 10.2857C5.78577 11.3529 6.6472 12.2143 7.71434 12.2143C8.78148 12.2143 9.64291 11.3529 9.64291 10.2857C9.64291 9.21858 8.78148 8.35715 7.71434 8.35715C6.6472 8.35715 5.78577 9.21858 5.78577 10.2857ZM5.78577 25.7143C5.78577 26.7728 6.6558 27.6429 7.71434 27.6429C8.77288 27.6429 9.64291 26.7728 9.64291 25.7143C9.64291 24.6558 8.78738 23.7857 7.71434 23.7857C6.6413 23.7857 5.78577 24.6558 5.78577 25.7143ZM32.1429 25.7143C32.1429 25.0042 31.5673 24.4286 30.8572 24.4286H12.8572C12.1471 24.4286 11.5715 25.0042 11.5715 25.7143C11.5715 26.4244 12.1471 27 12.8572 27H30.8572C31.5673 27 32.1429 26.4244 32.1429 25.7143ZM32.1429 18C32.1429 17.2899 31.5673 16.7143 30.8572 16.7143H12.8572C12.1471 16.7143 11.5715 17.2899 11.5715 18C11.5715 18.7101 12.1471 19.2857 12.8572 19.2857H30.8572C31.5673 19.2857 32.1429 18.7101 32.1429 18ZM12.8572 11.5714H30.8572C31.5673 11.5714 32.1429 10.9958 32.1429 10.2857C32.1429 9.57564 31.5673 9 30.8572 9H12.8572C12.1471 9 11.5715 9.57564 11.5715 10.2857C11.5715 10.9958 12.1471 11.5714 12.8572 11.5714Z" fill="#86582A"/>
</svg>
