<svg width="20" height="16" viewBox="0 0 20 16" fill="none" xmlns="http://www.w3.org/2000/svg">
<path d="M8.83297 13.8064C-0.0801462 13.9395 0.130486 11.5338 1.34994 10.3144C-2.22528 12.2267 1.34994 15.3862 11.4936 14.5963C19.6085 13.9644 18.3946 11.4784 16.7733 10.3144C17.8403 11.423 17.7461 13.6734 8.83297 13.8064Z" fill="#86582A"/>
<path d="M9.24875 15.2305C13.4392 15.1307 15.4292 14.3575 15.9003 13.9833C15.249 14.1635 12.9819 14.5487 9.12403 14.6485C5.26611 14.7482 3.16532 14.1357 2.59717 13.817C3.06832 14.3298 5.05825 15.3303 9.24875 15.2305Z" fill="#86582A"/>
<path d="M3.17907 4.3695C4.975 5.03466 8.14004 5.09009 9.49807 5.03466C9.34564 5.09009 8.64168 5.23421 7.0453 5.36724C5.04983 5.53353 3.34536 5.03466 2.26448 5.03466C1.19178 5.03466 1.63406 6.01736 2.00654 6.84495L2.01505 6.86385C2.3892 7.69529 3.76109 11.7278 10.2048 11.7278C15.3598 11.7278 17.1474 6.90542 17.3968 4.49422C17.48 5.35338 17.2555 7.56226 15.6924 9.52448C13.7385 11.9772 10.7868 12.1851 9.24864 12.2683C7.71046 12.3514 4.84197 12.102 2.55549 9.6492C0.726301 7.68698 0.407579 4.42493 0.476866 3.03919C0.629298 3.20548 1.38314 3.70435 3.17907 4.3695Z" fill="#86582A"/>
<path d="M8.99912 13.0997C6.405 13.0332 5.50704 12.1297 5.38232 11.6862C6.01977 11.9357 7.82678 12.4262 9.95529 12.393C12.0838 12.3597 12.9208 11.908 13.0732 11.6862C12.7961 12.1851 11.5932 13.1662 8.99912 13.0997Z" fill="#86582A"/>
<path d="M15.7756 4.32793C15.0772 4.59399 13.8217 4.74365 13.2812 4.78523C13.8355 4.84066 14.9109 4.93489 15.7756 5.36724C16.6403 5.79959 16.4962 7.30728 16.1913 7.94473C16.2883 7.7923 16.6569 7.22968 17.0228 5.86611C17.3886 4.50253 17.2861 3.77363 17.2306 3.6212C17.0366 3.74592 16.474 4.06187 15.7756 4.32793Z" fill="#86582A"/>
<path d="M17.7295 3.03919C17.9291 2.83964 17.8958 2.40175 17.8543 2.20774C18.2423 2.24931 19.0765 2.40729 19.3093 2.70661C19.6003 3.08076 19.725 3.45491 19.3093 4.32793C18.8936 5.20095 17.8543 6.4897 17.7295 7.03014C17.6298 7.46249 18.1314 7.7923 18.3947 7.90316C18.2977 7.93087 17.979 7.9863 17.4801 7.9863C16.9812 7.9863 16.8288 7.73687 16.8149 7.61215C16.8842 7.36272 17.0727 6.76407 17.2722 6.36498C17.5217 5.86611 17.7295 6.36498 18.6026 4.57737C19.4756 2.78975 18.4778 3.03919 18.1037 3.03919C17.8044 3.03919 17.5632 3.56577 17.4801 3.82906C17.4801 3.64892 17.53 3.23874 17.7295 3.03919Z" fill="#86582A"/>
<path d="M2.57446 0.587345C1.26665 1.00282 0.642452 1.45543 0.500359 2.02265C0.358263 2.58987 0.873095 3.15448 1.95949 3.62287C3.04589 4.09126 4.6386 4.43529 6.47357 4.59793C8.30853 4.76058 10.2755 4.73206 12.0484 4.5171C13.8213 4.30215 15.2937 3.91367 16.2213 3.41608C17.149 2.91849 17.4762 2.34167 17.1488 1.78126C16.8214 1.22085 15.859 0.710504 14.4211 0.334842C13.0519 -0.0228956 10.704 -0.0787399 9.18726 0.0950199C10.8092 0.116182 12.3581 0.301361 13.5771 0.619856C14.7961 0.938351 15.6121 1.37103 15.8897 1.84616C16.1673 2.32129 15.8898 2.81033 15.1033 3.2322C14.3169 3.65407 13.0686 3.98343 11.5655 4.16567C10.0624 4.34791 8.3947 4.37209 6.83898 4.2342C5.28326 4.09631 3.93293 3.80463 3.01185 3.40752C2.09078 3.01041 1.6543 2.53172 1.77477 2.05082C1.89524 1.56992 2.23285 0.78311 3.34164 0.430863L2.57446 0.587345Z" fill="#86582A"/>
<path d="M1.30842 2.54032C1.30842 3.64239 4.58423 4.53579 8.62516 4.53579C12.6661 4.53579 15.9419 3.64239 15.9419 2.54032C15.9419 1.43825 12.6661 0.627991 8.62516 0.627991C4.58423 0.627991 1.30842 1.43825 1.30842 2.54032ZM14.912 2.29089C14.912 3.23783 12.0973 4.00549 8.62516 4.00549C5.15301 4.00549 2.58771 3.48727 2.58771 2.54032C2.58771 1.59337 5.15301 0.908862 8.62516 0.908862C12.0973 0.908862 14.912 1.34394 14.912 2.29089Z" fill="#86582A"/>
<ellipse rx="5.94485" ry="1.45503" transform="matrix(-1 0 0 1 8.41697 2.58189)" fill="#86582A"/>
</svg>
