<svg width="32" height="32" viewBox="0 0 32 32" fill="none" xmlns="http://www.w3.org/2000/svg">
<path d="M2.24023 3.69336H6.9069L11.1202 21.9734H28.0002L29.7602 8.96003H9.28023" stroke="#BA8C4D" stroke-width="2" stroke-linecap="round" stroke-linejoin="round"/>
<path d="M14.1471 24.8268H14.1337C13.1764 24.8268 12.4004 25.6028 12.4004 26.5601V26.5734C12.4004 27.5307 13.1764 28.3068 14.1337 28.3068H14.1471C15.1044 28.3068 15.8804 27.5307 15.8804 26.5734V26.5601C15.8804 25.6028 15.1044 24.8268 14.1471 24.8268Z" stroke="#BA8C4D" stroke-width="2" stroke-linecap="round" stroke-linejoin="round"/>
<path d="M14.1471 24.8268H14.1337C13.1764 24.8268 12.4004 25.6028 12.4004 26.5601V26.5734C12.4004 27.5307 13.1764 28.3068 14.1337 28.3068H14.1471C15.1044 28.3068 15.8804 27.5307 15.8804 26.5734V26.5601C15.8804 25.6028 15.1044 24.8268 14.1471 24.8268Z" stroke="#BA8C4D" stroke-width="2" stroke-linecap="round" stroke-linejoin="round"/>
<path d="M23.2935 24.8268H23.2802C22.3229 24.8268 21.5469 25.6028 21.5469 26.5601V26.5734C21.5469 27.5307 22.3229 28.3068 23.2802 28.3068H23.2935C24.2508 28.3068 25.0269 27.5307 25.0269 26.5734V26.5601C25.0269 25.6028 24.2508 24.8268 23.2935 24.8268Z" stroke="#BA8C4D" stroke-width="2" stroke-linecap="round" stroke-linejoin="round"/>
</svg>
