<svg width="32" height="32" viewBox="0 0 32 32" fill="none" xmlns="http://www.w3.org/2000/svg">
<path d="M6.22602 24H5.33268C4.62544 24 3.94716 23.719 3.44706 23.2189C2.94697 22.7189 2.66602 22.0406 2.66602 21.3333V8.65333C2.66602 7.94609 2.94697 7.26781 3.44706 6.76771C3.94716 6.26762 4.62544 5.98666 5.33268 5.98666H18.3727C19.0799 5.98666 19.7582 6.26762 20.2583 6.76771C20.7584 7.26781 21.0393 7.94609 21.0393 8.65333V17.8667" stroke="#BA8C4D" stroke-width="2" stroke-linecap="round" stroke-linejoin="round"/>
<path d="M21.5195 10.92H24.7062C24.9449 10.9194 25.1805 10.9731 25.3954 11.0771C25.6102 11.181 25.7986 11.3325 25.9462 11.52L28.9595 15.52C29.2675 15.9322 29.4357 16.4321 29.4395 16.9467V23.6133C29.4395 23.684 29.4114 23.7519 29.3614 23.8019C29.3114 23.8519 29.2436 23.88 29.1729 23.88H25.1062" stroke="#BA8C4D" stroke-width="2" stroke-linecap="round" stroke-linejoin="round"/>
<path d="M22.0121 26.7467C23.6615 26.7467 24.9987 25.4095 24.9987 23.76C24.9987 22.1106 23.6615 20.7734 22.0121 20.7734C20.3626 20.7734 19.0254 22.1106 19.0254 23.76C19.0254 25.4095 20.3626 26.7467 22.0121 26.7467Z" stroke="#BA8C4D" stroke-width="2" stroke-linecap="round" stroke-linejoin="round"/>
<path d="M9.35971 26.7467C11.0092 26.7467 12.3464 25.4095 12.3464 23.76C12.3464 22.1106 11.0092 20.7734 9.35971 20.7734C7.71022 20.7734 6.37305 22.1106 6.37305 23.76C6.37305 25.4095 7.71022 26.7467 9.35971 26.7467Z" stroke="#BA8C4D" stroke-width="2" stroke-linecap="round" stroke-linejoin="round"/>
<path d="M18.5598 23.9333H12.4932" stroke="#BA8C4D" stroke-width="2" stroke-linecap="round" stroke-linejoin="round"/>
</svg>
