<svg width="26" height="22" viewBox="0 0 26 22" fill="none" xmlns="http://www.w3.org/2000/svg">
<path d="M12.1757 10.4703C11.8838 9.88773 11.7225 9.22276 11.7225 8.48667C11.7225 7.75059 11.8838 7.01154 12.1757 6.31813C12.467 5.62412 12.8888 4.97515 13.4106 4.41865C13.9317 3.86273 14.5526 3.39749 15.2414 3.07271C15.9309 2.74615 16.6888 2.56006 17.4839 2.56006C18.279 2.56006 19.0369 2.70941 19.7264 2.97907C20.4158 3.24932 21.0361 3.63989 21.5572 4.12231C22.0777 4.60474 22.5008 5.17962 22.7921 5.81792C23.0847 6.45562 23.2453 7.15793 23.2453 7.89401C23.2453 8.6301 23.084 9.3324 22.7921 9.97011C22.5008 10.6084 22.079 11.1833 21.5572 11.6657C21.0368 12.1481 13.6922 18.2917 13.0028 18.5619C12.3133 18.2917 4.9688 12.1481 4.44771 11.6657C3.92662 11.1833 3.50476 10.6084 3.21285 9.97011C2.92157 9.3324 2.76025 8.6301 2.76025 7.89401C2.76025 7.15793 2.92157 6.45562 3.21285 5.81792C3.50476 5.17962 3.92598 4.60474 4.44771 4.12231C4.9688 3.63989 5.58976 3.24932 6.27921 2.97907C6.96802 2.70941 7.72596 2.56006 8.52168 2.56006C9.3174 2.56006 10.0753 2.74615 10.7642 3.07153C11.4536 3.39749 12.0739 3.86214 12.5957 4.41805C13.1167 4.97456 13.5386 5.62353 13.8305 6.31753C14.1218 7.01154 14.2831 7.75059 14.2831 8.48667C14.2831 9.22276 14.1218 9.88773 13.8305 10.4703C13.5386 11.0529 13.118 11.5537 12.5957 11.9626" fill="#FFFEFB"/>
</svg>
