<svg width="42" height="42" viewBox="0 0 42 42" fill="none" xmlns="http://www.w3.org/2000/svg">
<g clip-path="url(#clip0_1047_2070)">
<path d="M41.4399 16.5367H40.4555V11.6685C40.4529 9.29906 38.5329 7.37902 36.1634 7.37647H33.9945L27.5415 0.923138C27.3232 0.70482 26.9685 0.70482 26.7499 0.923138L24.0109 3.66287L21.4628 1.11485C21.2445 0.896167 20.8899 0.896167 20.6712 1.11485L14.4107 7.37574H10.0381C7.66905 7.37829 5.74864 9.29833 5.74609 11.6678V34.1154H6.86575V11.6685C6.86794 9.9172 8.28683 8.49795 10.0381 8.49613H14.8568L14.8652 8.50451L14.8739 8.49613H27.2605L27.2692 8.50451L27.2776 8.49613H36.1638C37.9147 8.49795 39.334 9.9172 39.3362 11.6685V16.5371H33.1106C30.5611 16.5484 28.5001 18.6186 28.5001 21.1684C28.5001 23.7183 30.5611 25.7881 33.1106 25.7998H39.3362V30.6684C39.3343 32.4197 37.9151 33.8389 36.1638 33.8408H6.34442V34.9604H36.1634C38.5329 34.9579 40.4529 33.0378 40.4555 30.6684V25.7994H41.4399C41.7493 25.7994 41.9997 25.5487 41.9997 25.2396V17.0966C41.9997 16.7875 41.7493 16.5367 41.4399 16.5367ZM27.1457 2.11095L32.4108 7.37647H27.7241L24.8025 4.45414L27.1457 2.11095ZM15.9936 7.37647L21.067 2.3023L26.1408 7.37647H15.9936ZM40.8801 24.6798H33.1106C31.1786 24.6696 29.6172 23.1005 29.6172 21.1681C29.6172 19.2356 31.1786 17.6662 33.1106 17.6564H40.8804L40.8801 24.6798Z" fill="#BA8C4D" stroke="#BA8C4D" stroke-width="0.999693"/>
<path d="M31.1758 21.1682C31.1758 22.3207 32.1099 23.2548 33.2624 23.2548C34.4148 23.2548 35.3493 22.3207 35.3493 21.1682C35.3493 20.0157 34.4148 19.0816 33.2627 19.0816C32.1107 19.0827 31.1772 20.0161 31.1758 21.1682ZM33.2627 20.2013C33.7967 20.2013 34.2297 20.6343 34.2297 21.1682C34.2297 21.7022 33.7967 22.1351 33.2624 22.1351C32.7284 22.1351 32.2954 21.7022 32.2954 21.1682C32.2962 20.6343 32.7288 20.2016 33.2627 20.2013Z" fill="#BA8C4D"/>
</g>
<defs>
<clipPath id="clip0_1047_2070">
<rect width="42" height="42" fill="white"/>
</clipPath>
</defs>
</svg>
