<svg width="44" height="44" viewBox="0 0 44 44" fill="none" xmlns="http://www.w3.org/2000/svg">
<g clip-path="url(#clip0_1047_2088)">
<path d="M27.4586 9.97435L8.88342 20.4659C7.60107 21.1902 7.14868 22.8169 7.87297 24.0992L12.9024 33.0037C13.6266 34.2861 15.2534 34.7385 16.5357 34.0142L35.1109 23.5226C36.3933 22.7983 36.8457 21.1716 36.1214 19.8893L31.092 10.9848C30.3677 9.70245 28.741 9.25006 27.4586 9.97435Z" stroke="#BA8C4D" stroke-width="2" stroke-linecap="round" stroke-linejoin="round"/>
<path d="M11.5266 19.7231C12.2222 20.9547 12.4001 22.4122 12.0211 23.775C11.6421 25.1378 10.7373 26.2942 9.5057 26.9898V26.9898" stroke="#BA8C4D" stroke-width="2" stroke-linecap="round" stroke-linejoin="round"/>
<path d="M11.2236 30.0316C12.4552 29.336 13.9128 29.1581 15.2755 29.5371C16.6383 29.9161 17.7947 30.8209 18.4903 32.0525" stroke="#BA8C4D" stroke-width="2" stroke-linecap="round" stroke-linejoin="round"/>
<path d="M32.4227 24.1837C31.7271 22.9521 31.5492 21.4946 31.9282 20.1318C32.3072 18.7691 33.212 17.6127 34.4436 16.917" stroke="#BA8C4D" stroke-width="2" stroke-linecap="round" stroke-linejoin="round"/>
<path d="M32.7257 13.8753C31.4941 14.5709 30.0366 14.7488 28.6738 14.3698C27.311 13.9908 26.1546 13.086 25.459 11.8544V11.8544" stroke="#BA8C4D" stroke-width="2" stroke-linecap="round" stroke-linejoin="round"/>
<path d="M23.312 24.322C24.5943 23.5977 25.0467 21.971 24.3224 20.6886C23.5981 19.4063 21.9714 18.9539 20.6891 19.6782C19.4067 20.4025 18.9543 22.0292 19.6786 23.3115C20.4029 24.5939 22.0296 25.0463 23.312 24.322Z" stroke="#BA8C4D" stroke-width="2" stroke-linecap="round" stroke-linejoin="round"/>
</g>
<defs>
<clipPath id="clip0_1047_2088">
<rect width="32" height="32" fill="white" transform="translate(0.200195 15.9373) rotate(-29.4584)"/>
</clipPath>
</defs>
</svg>
