<svg width="166" height="166" viewBox="0 0 166 166" fill="none" xmlns="http://www.w3.org/2000/svg">
<path fill-rule="evenodd" clip-rule="evenodd" d="M164.845 48.5979C164.458 39.815 163.038 33.7769 161.003 28.5447C158.904 22.9909 155.675 18.0186 151.445 13.8851C147.311 9.68729 142.306 6.4254 136.817 4.35928C131.554 2.3247 125.548 0.904399 116.765 0.51716C107.916 0.0971251 105.107 0 82.6649 0C60.2227 0 57.4136 0.0971251 48.5979 0.484365C39.815 0.871604 33.7769 2.29316 28.546 4.32649C22.9909 6.4254 18.0186 9.6545 13.8851 13.8851C9.68729 18.0186 6.42666 23.0237 4.35928 28.5132C2.3247 33.7769 0.9044 39.7822 0.51716 48.5651C0.0971251 57.4136 0 60.2227 0 82.6649C0 105.107 0.0971251 107.916 0.484365 116.732C0.871604 125.515 2.29316 131.553 4.32775 136.785C6.42666 142.339 9.68729 147.311 13.8851 151.445C18.0186 155.642 23.0237 158.904 28.5132 160.97C33.7769 163.005 39.7822 164.425 48.5664 164.813C57.3808 165.201 60.1911 165.297 82.6334 165.297C105.076 165.297 107.885 165.201 116.7 164.813C125.483 164.425 131.521 163.005 136.752 160.97C147.861 156.676 156.644 147.893 160.939 136.785C162.972 131.521 164.394 125.515 164.781 116.732C165.168 107.916 165.265 105.107 165.265 82.6649C165.265 60.2227 165.233 57.4136 164.845 48.5979ZM149.96 116.086C149.604 124.159 148.248 128.518 147.118 131.424C144.341 138.625 138.625 144.341 131.424 147.118C128.518 148.248 124.127 149.604 116.086 149.959C107.368 150.347 104.753 150.443 82.6977 150.443C60.6427 150.443 57.9951 150.347 49.3081 149.959C41.2353 149.604 36.876 148.248 33.9699 147.118C30.3863 145.794 27.1244 143.695 24.4768 140.95C21.7321 138.27 19.6332 135.041 18.3087 131.457C17.1785 128.551 15.8226 124.159 15.4681 116.119C15.0796 107.4 14.9838 104.784 14.9838 82.7292C14.9838 60.6742 15.0796 58.0266 15.4681 49.3409C15.8226 41.2681 17.1785 36.9088 18.3087 34.0026C19.6332 30.4178 21.7321 27.1572 24.5096 24.5083C27.1888 21.7636 30.4178 19.6647 34.0027 18.3415C36.9088 17.2113 41.3009 15.8554 49.3409 15.4997C58.0594 15.1124 60.6755 15.0153 82.7292 15.0153C104.817 15.0153 107.432 15.1124 116.119 15.4997C124.192 15.8554 128.551 17.2113 131.457 18.3415C135.041 19.6647 138.303 21.7636 140.95 24.5083C143.695 27.1887 145.794 30.4178 147.118 34.0026C148.248 36.9088 149.604 41.2996 149.96 49.3409C150.347 58.0594 150.444 60.6742 150.444 82.7292C150.444 104.784 150.347 107.367 149.96 116.086ZM82.6619 40.2015C59.2194 40.2015 40.1992 59.2204 40.1992 82.6641C40.1992 106.108 59.2194 125.127 82.6619 125.127C106.106 125.127 125.125 106.108 125.125 82.6641C125.125 59.2204 106.106 40.2015 82.6619 40.2015ZM82.6619 110.209C67.4536 110.209 55.1174 97.8737 55.1174 82.6641C55.1174 67.4546 67.4536 55.1197 82.6619 55.1197C97.8714 55.1197 110.206 67.4546 110.206 82.6641C110.206 97.8737 97.8714 110.209 82.6619 110.209ZM126.822 48.4347C132.298 48.4347 136.736 43.996 136.736 38.5217C136.736 33.0461 132.298 28.6086 126.822 28.6086C121.348 28.6086 116.909 33.0461 116.909 38.5217C116.909 43.996 121.348 48.4347 126.822 48.4347Z" fill="#FBFBFB"/>
</svg>
