<svg width="27" height="22" viewBox="0 0 27 22" fill="none" xmlns="http://www.w3.org/2000/svg">
<path d="M18.2209 21V18.7778C18.2209 17.599 17.7526 16.4686 16.9191 15.6351C16.0856 14.8016 14.9552 14.3333 13.7764 14.3333H5.99864C4.8199 14.3333 3.68944 14.8016 2.85595 15.6351C2.02245 16.4686 1.5542 17.599 1.5542 18.7778V21" stroke="#86582A" stroke-width="2" stroke-linecap="round" stroke-linejoin="round"/>
<path d="M9.8878 9.88888C12.3424 9.88888 14.3322 7.89904 14.3322 5.44444C14.3322 2.98984 12.3424 1 9.8878 1C7.4332 1 5.44336 2.98984 5.44336 5.44444C5.44336 7.89904 7.4332 9.88888 9.8878 9.88888Z" stroke="#86582A" stroke-width="2" stroke-linecap="round" stroke-linejoin="round"/>
<path d="M22.665 6.55557V13.2222" stroke="#86582A" stroke-width="2" stroke-linecap="round" stroke-linejoin="round"/>
<path d="M25.9987 9.8889H19.332" stroke="#86582A" stroke-width="2" stroke-linecap="round" stroke-linejoin="round"/>
</svg>
